<svg width="42" height="42" viewBox="0 0 42 42" fill="none" xmlns="http://www.w3.org/2000/svg">
<path d="M19.5329 35.2541C18.2368 34.2139 6.20116 22.5097 6.06663 22.3817C5.53506 21.8502 5.20038 21.2989 5.1085 20.7936C5.01335 20.2686 5.17413 19.8092 5.60069 19.3827C5.99772 18.9856 6.48335 18.7756 7.00507 18.7756C7.64163 18.7756 8.2946 19.0775 8.83928 19.6255L14.296 24.8689C14.3912 24.9608 14.5158 25.0067 14.6373 25.0067C14.7339 25.0069 14.8284 24.9786 14.909 24.9252C14.9896 24.8719 15.0526 24.7959 15.0901 24.7068C15.1276 24.6178 15.138 24.5196 15.1199 24.4247C15.1018 24.3297 15.056 24.2423 14.9883 24.1733L6.27663 15.1761C5.40381 14.3033 4.99366 12.9678 6.03053 11.9309C6.42756 11.5339 6.91319 11.3239 7.43491 11.3239C8.07147 11.3239 8.72444 11.6258 9.26913 12.1737L18.181 20.8625C18.2762 20.9544 18.4008 21.0036 18.5255 21.0036C18.6502 21.0036 18.7782 20.9544 18.8733 20.8592C19.0637 20.6689 19.0669 20.3605 18.8766 20.1669L8.17319 9.19438C7.67772 8.69891 7.37913 8.105 7.32663 7.5275C7.27741 6.94016 7.48413 6.39547 7.9271 5.9525C8.32413 5.55547 8.80975 5.34547 9.33147 5.34547C9.96803 5.34547 10.621 5.64734 11.1657 6.19203L22.0824 16.8364C22.1776 16.9283 22.3023 16.9775 22.4269 16.9775C22.5516 16.9775 22.6796 16.9283 22.7748 16.8331C22.9651 16.6428 22.9683 16.3344 22.778 16.1408L14.8505 7.99344C14.3518 7.49469 14.0532 6.90406 14.004 6.32656C13.9548 5.73922 14.1615 5.19453 14.6044 4.75156C15.0015 4.35453 15.4871 4.14453 16.0088 4.14453C16.6454 4.14453 17.2983 4.44641 17.843 4.99438C20.7502 7.84906 28.3398 15.3139 28.5957 15.5895C29.5702 16.2622 29.7671 15.245 29.8163 14.5855C29.8721 13.8177 28.9927 11.1369 29.5046 8.72516C30.3643 5.51937 32.8416 6.04437 32.8974 6.07062C34.2558 6.70719 33.9966 7.65875 33.5143 9.57172L33.4651 9.94906C32.9598 12.4494 36.4313 19.8584 36.6873 20.413C38.049 23.3923 39.6174 29.4331 34.4232 34.6273C28.7302 40.3203 21.6821 37.4033 19.5329 35.2541Z" fill="url(#paint0_radial_347_17)"/>
<path d="M26.8372 38.45C23.3459 38.45 20.3764 36.7798 19.205 35.6216C18.1517 34.7619 11.5039 28.3438 6.08982 23.0905C5.86997 22.8772 5.74201 22.7558 5.72888 22.7394C5.11529 22.1258 4.73466 21.4859 4.62638 20.8822C4.50169 20.1964 4.71497 19.5762 5.2531 19.0348C5.74529 18.5427 6.34904 18.2834 7.00529 18.2834C7.77638 18.2834 8.55076 18.6378 9.18732 19.2777L14.6375 24.5145L5.92247 15.5173C4.91841 14.5133 4.4131 12.8497 5.68294 11.5831C6.17513 11.0909 6.77888 10.8317 7.43513 10.8317C8.20622 10.8317 8.9806 11.1861 9.61716 11.8259L18.5225 20.5081L7.82232 9.53891C7.25138 8.96797 6.90029 8.26906 6.83794 7.57344C6.7756 6.83187 7.03154 6.15266 7.57951 5.60469C8.07169 5.1125 8.67544 4.85328 9.33169 4.85328C10.0995 4.85328 10.8739 5.20437 11.5137 5.84422L22.4272 16.4853L14.4997 8.33797C13.9254 7.76375 13.5743 7.06484 13.5153 6.36922C13.4529 5.63094 13.7089 4.95172 14.2568 4.40375C14.749 3.91156 15.3528 3.65234 16.009 3.65234C16.7801 3.65234 17.5545 4.00672 18.1911 4.64656L20.5568 6.96641C24.7733 11.1008 28.2973 14.5625 28.6747 14.9497C28.8584 15.0973 29.0979 15.1531 29.1997 15.1039C29.2653 15.0711 29.3375 14.9202 29.3243 14.6019C29.3047 14.0441 29.2259 13.3517 29.1439 12.62C28.9798 11.15 28.8092 9.6275 29.0225 8.62344C29.4884 6.88109 30.4039 6.14281 31.0864 5.82453C32.0248 5.39141 32.9337 5.54234 33.1076 5.62437C34.8139 6.425 34.4759 7.76375 34.01 9.62094L34.0001 9.66687L33.9476 10.0508C33.6064 11.7308 35.3586 16.3737 37.1108 20.157L37.137 20.2095C38.3084 22.7689 40.4183 29.3347 34.7745 34.9784C32.179 37.5673 29.3703 38.45 26.8372 38.45ZM7.00529 19.2678C6.6181 19.2678 6.2506 19.4286 5.94872 19.7305C5.63701 20.0422 5.52872 20.3441 5.59435 20.705C5.66654 21.102 5.95857 21.5745 6.41466 22.0339C6.41794 22.0372 6.54919 22.1652 6.7756 22.3817C14.4603 29.84 19.1 34.273 19.8415 34.8702L19.8809 34.9062C21.6922 36.7175 28.422 39.9331 34.0756 34.2795C39.2829 29.0722 37.324 22.992 36.2379 20.6164L36.215 20.5672C35.0862 18.1325 32.5203 12.2263 32.9764 9.87031L33.0518 9.37813C33.5572 7.37 33.5867 6.95 32.7303 6.53656C32.4776 6.49062 30.6664 6.27078 29.974 8.85312C29.8001 9.67672 29.9675 11.1828 30.1151 12.5117C30.2004 13.2631 30.2792 13.9752 30.2989 14.5691C30.3317 15.5042 29.8887 15.8619 29.6197 15.9931C29.0717 16.2589 28.4187 16.0325 28.0118 15.6912L27.9692 15.6519C27.769 15.4353 23.0079 10.7661 19.8579 7.67516L17.4889 5.34875C16.6817 4.53828 15.6415 4.40375 14.9426 5.10266C14.6014 5.44391 14.4472 5.84422 14.4833 6.28719C14.5226 6.74984 14.772 7.23219 15.1887 7.64891L23.1326 15.7962C23.3132 15.9819 23.4136 16.231 23.4124 16.4899C23.4112 16.7489 23.3083 16.997 23.1261 17.1809C22.7619 17.5452 22.1187 17.5517 21.7447 17.1908L10.8214 6.54313C10.0142 5.73594 8.97076 5.60141 8.27513 6.30031C7.93388 6.64156 7.77966 7.04187 7.81576 7.48484C7.85841 7.9475 8.10779 8.43313 8.52122 8.84328L19.2279 19.8223C19.6053 20.203 19.602 20.8264 19.2214 21.207C18.8572 21.5712 18.214 21.5778 17.84 21.2169L8.92482 12.5248C8.11763 11.7111 7.07419 11.5798 6.37857 12.2787C5.52872 13.1286 5.98154 14.1819 6.62466 14.8283L15.3429 23.832C15.5229 24.0168 15.6229 24.2651 15.621 24.5231C15.6192 24.7811 15.5157 25.0279 15.3331 25.2102C14.9656 25.5777 14.329 25.5809 13.955 25.2233L8.49826 19.9798C8.03888 19.5172 7.5106 19.2678 7.00529 19.2678Z" fill="#EDA600"/>
<path d="M27.8113 15.2705C26.0099 18.9488 26.2429 24.0971 28.9466 28.2282C29.2518 28.786 29.7735 28.5136 29.5077 27.9394C26.2429 20.9536 29.6652 15.9202 29.6652 15.9202L27.8113 15.2705Z" fill="#EDA600"/>
<path d="M20.7275 1.47654C21.7185 1.21732 22.775 1.24029 23.8021 1.47982C24.8225 1.72591 25.843 2.24435 26.601 3.09091C27.3425 3.93091 27.7986 4.95138 27.9529 6.02107C28.0972 7.08091 27.9627 8.17357 27.4607 9.07919C27.4016 8.062 27.2244 7.12685 26.9258 6.26388C26.7716 5.83404 26.5911 5.42388 26.3713 5.03669C26.1547 4.65279 25.8988 4.27216 25.6264 3.96044C25.0719 3.3206 24.3205 2.82185 23.4772 2.43466C22.6307 2.03435 21.7086 1.73904 20.7275 1.47654Z" fill="#B0BEC5"/>
<path d="M21 4.58717C21.548 4.23936 22.2338 4.16717 22.8802 4.28201C23.5331 4.39686 24.1566 4.7217 24.6488 5.17123C25.1377 5.62733 25.4855 6.20155 25.702 6.79873C25.807 7.09733 25.8595 7.41233 25.9087 7.71748C25.9252 8.03248 25.9252 8.34748 25.8759 8.66248C25.6495 8.42295 25.4723 8.18342 25.305 7.95045C25.1114 7.73061 24.9605 7.49764 24.7866 7.28436C24.4453 6.86108 24.1139 6.47717 23.7563 6.13592C23.3888 5.80452 23.0016 5.51248 22.552 5.25983C22.1058 5.00061 21.6038 4.78405 21 4.58717Z" fill="#90A4AE"/>
<path d="M2.24065 25.377C2.7033 26.2826 3.18565 27.1226 3.74674 27.8641C4.30455 28.6057 4.9444 29.2357 5.68924 29.6459C6.05018 29.846 6.48002 30.0199 6.90002 30.1512C7.3233 30.2857 7.76299 30.3776 8.2158 30.4399C9.12143 30.5515 10.073 30.5318 11.0803 30.3776C10.2994 31.0568 9.25596 31.4177 8.19283 31.4965C7.11658 31.5687 6.02393 31.3357 5.04612 30.7845C4.06174 30.2234 3.33987 29.3309 2.88705 28.3826C2.43424 27.4277 2.19143 26.4007 2.24065 25.377Z" fill="#B0BEC5"/>
<path d="M5.34136 24.9932C5.65964 25.5444 5.97464 25.9874 6.31917 26.3746C6.66042 26.7618 7.02792 27.08 7.42823 27.3688C7.83511 27.6477 8.28136 27.8938 8.76698 28.1399C9.00979 28.2646 9.26901 28.363 9.52495 28.5074C9.79073 28.6222 10.0598 28.7436 10.342 28.9175C10.0434 29.0291 9.73823 29.0947 9.42651 29.1439C9.11807 29.1571 8.79979 29.1735 8.48479 29.1308C7.85479 29.0455 7.22479 28.8257 6.67354 28.4418C6.13214 28.0513 5.68261 27.5099 5.43651 26.8963C5.18714 26.286 5.11495 25.6035 5.34136 24.9932Z" fill="#90A4AE"/>
<defs>
<radialGradient id="paint0_radial_347_17" cx="0" cy="0" r="1" gradientUnits="userSpaceOnUse" gradientTransform="translate(14.4524 12.4693) rotate(-45) scale(29.862)">
<stop offset="0.353" stop-color="#FFCA28"/>
<stop offset="0.872" stop-color="#FFB300"/>
</radialGradient>
</defs>
</svg>
