<svg width="34" height="50" viewBox="0 0 34 50" fill="none" xmlns="http://www.w3.org/2000/svg">
<path d="M5 49.9641C2.23858 49.9641 0 47.7255 0 44.9641V4.03098C0 1.82459 1.78864 0.0359535 3.99503 0.0359535V0.0359535C6.20142 0.0359535 7.99006 1.82459 7.99006 4.03098V37.9184C7.99006 42.1768 12.9735 44.486 16.2224 41.7331L25.323 34.0218C26.6417 32.9044 28.6643 33.8417 28.6643 35.5701V35.5701V39.9496V49.8641V49.8641C28.6643 49.9193 28.6196 49.9641 28.5644 49.9641H5Z" fill="#222222"/>
<path d="M15.9091 0V27.2727V27.2727C15.9091 30.2178 19.1671 31.9965 21.6444 30.4039L27.2524 26.7988C29.4461 25.3886 32.3712 26.6289 32.8827 29.1861V29.1861C32.9305 29.4251 32.9545 29.6565 32.9545 29.9002C32.9545 32.5326 32.9545 48.9549 32.9545 50" stroke="#222222" stroke-width="2"/>
</svg>
