<svg width="57" height="56" viewBox="0 0 57 56" fill="none" xmlns="http://www.w3.org/2000/svg">
<g clip-path="url(#clip0_740_4421)">
<path d="M20.5079 50.4002C24.5954 50.4002 27.9128 47.0551 27.9128 42.9335V35.4668H20.5079C16.4204 35.4668 13.1029 38.8119 13.1029 42.9335C13.1029 47.0551 16.4204 50.4002 20.5079 50.4002Z" fill="#0ACF83"/>
<path d="M13.1029 28.0001C13.1029 23.8785 16.4204 20.5334 20.5079 20.5334H27.9128V35.4667H20.5079C16.4204 35.4667 13.1029 32.1217 13.1029 28.0001Z" fill="#A259FF"/>
<path d="M13.1057 13.0668C13.1057 8.94516 16.4231 5.6001 20.5106 5.6001H27.9156V20.5334H20.5106C16.4231 20.5334 13.1057 17.1884 13.1057 13.0668Z" fill="#F24E1E"/>
<path d="M27.9129 5.6001H35.3179C39.4054 5.6001 42.7229 8.94516 42.7229 13.0668C42.7229 17.1884 39.4054 20.5334 35.3179 20.5334H27.9129V5.6001Z" fill="#FF7262"/>
<path d="M42.7229 28.0001C42.7229 32.1217 39.4054 35.4667 35.3179 35.4667C31.2303 35.4667 27.9129 32.1217 27.9129 28.0001C27.9129 23.8785 31.2303 20.5334 35.3179 20.5334C39.4054 20.5334 42.7229 23.8785 42.7229 28.0001Z" fill="#1ABCFE"/>
</g>
<defs>
<clipPath id="clip0_740_4421">
<rect width="29.6258" height="44.8" fill="white" transform="translate(13.1 5.6001)"/>
</clipPath>
</defs>
</svg>
