<svg width="57" height="56" viewBox="0 0 57 56" fill="none" xmlns="http://www.w3.org/2000/svg">
<g clip-path="url(#clip0_740_4424)">
<path d="M43.9813 50.4001H14.5654C10.1055 50.4001 6.5 46.7628 6.5 42.2635V13.7367C6.5 9.2374 10.1055 5.6001 14.5654 5.6001H43.9813C48.4412 5.6001 52.0467 9.2374 52.0467 13.7367V42.2635C52.0467 46.7628 48.4412 50.4001 43.9813 50.4001Z" fill="#FF26BE"/>
<path d="M43.2598 48.4849H15.2869C11.4919 48.4849 8.39841 45.364 8.39841 41.5356V14.4644C8.39841 10.636 11.4919 7.51514 15.2869 7.51514H43.2416C47.0566 7.51514 50.1301 10.636 50.1301 14.4644V41.5172C50.1483 45.364 47.0548 48.4849 43.2598 48.4849Z" fill="#2E001F"/>
<path d="M24.5092 26.5636L29.8236 36.8635C29.9183 37.0161 29.8619 37.1704 29.7088 37.1704H26.4058C26.1963 37.1704 26.1015 37.1135 26.0068 36.9223C24.7916 34.3951 23.5582 31.868 22.2865 29.1496H22.2483C21.1096 31.7154 19.8562 34.4154 18.6428 36.9425C18.5481 37.0951 18.4533 37.1539 18.3003 37.1539H15.1722C14.9827 37.1539 14.9626 37.0014 15.0592 36.8856L20.2588 26.8908L15.2305 16.7821C15.1157 16.6295 15.2305 16.5137 15.3434 16.5137H18.6082C18.7977 16.5137 18.8742 16.5523 18.9489 16.7251C20.144 19.2523 21.3592 21.8567 22.4979 24.4022H22.5361C23.6366 21.875 24.8517 19.2523 26.0287 16.7435C26.1234 16.5909 26.1799 16.4954 26.3712 16.4954H29.4264C29.5777 16.4954 29.636 16.6112 29.5412 16.7637L24.5092 26.5636ZM30.7546 29.6845C30.7546 25.2238 33.6969 21.739 38.3645 21.739C38.7635 21.739 38.9712 21.739 39.352 21.7776V16.7049C39.352 16.5891 39.4467 16.5137 39.5414 16.5137H42.5402C42.6915 16.5137 42.7297 16.5707 42.7297 16.6663V34.2426C42.7297 34.7591 42.7297 35.4097 42.8245 36.1191C42.8245 36.2349 42.7862 36.2717 42.6732 36.3305C41.0791 37.0969 39.4085 37.4406 37.8143 37.4406C33.6951 37.4572 30.7528 34.8932 30.7546 29.6845ZM39.3502 24.7845C39.0842 24.6687 38.7052 24.5934 38.2497 24.5934C35.8576 24.5934 34.1888 26.4497 34.1888 29.5338C34.1888 33.0571 35.8977 34.4742 38.0421 34.4742C38.4975 34.4742 38.9912 34.4172 39.352 34.2628V24.7845H39.3502Z" fill="#FFD9F2"/>
</g>
<defs>
<clipPath id="clip0_740_4424">
<rect width="45.5467" height="44.8" fill="white" transform="translate(6.5 5.6001)"/>
</clipPath>
</defs>
</svg>
