<svg width="57" height="56" viewBox="0 0 57 56" fill="none" xmlns="http://www.w3.org/2000/svg">
<g clip-path="url(#clip0_740_4427)">
<path d="M8.46661 7.5188H49.5334V48.4815H8.46661V7.5188Z" fill="url(#paint0_radial_740_4427)"/>
<path d="M8.46662 7.51983H49.5334V48.4825H8.46662V7.51983ZM6.59998 50.3967H51.4001V5.60571H6.59998V50.3967ZM35.944 21.5697C35.944 21.4165 36 21.3399 36.168 21.3399H39.0987C39.2479 21.3399 39.3227 21.3973 39.3227 21.5697V36.6723C39.3227 36.8253 39.2853 36.9019 39.0987 36.9019H36.2054C36.0187 36.9019 35.9627 36.8062 35.9627 36.6531V21.5697H35.944ZM35.7387 17.2245C35.7387 15.9995 36.5787 15.2721 37.6427 15.2721C38.7814 15.2721 39.5467 16.0569 39.5467 17.2245C39.5467 18.4878 38.7441 19.1769 37.6054 19.1769C36.5227 19.177 35.7387 18.4878 35.7387 17.2245ZM27.3387 27.8672C26.8161 25.7425 25.5841 21.1102 25.1173 18.8707H25.08C24.688 21.1102 23.6987 24.9002 22.9147 27.8672H27.3387V27.8672ZM22.1494 30.9681L20.6747 36.7105C20.6373 36.8636 20.5813 36.9019 20.3947 36.9019H17.6507C17.464 36.9019 17.4266 36.8444 17.464 36.6148L22.7653 17.5882C22.8587 17.2437 22.9147 16.9374 22.952 15.9995C22.952 15.8655 23.008 15.8081 23.1013 15.8081H27.0213C27.152 15.8081 27.208 15.8464 27.2454 15.9995L33.1813 36.6531C33.2186 36.8061 33.1813 36.9019 33.032 36.9019H29.9333C29.784 36.9019 29.6906 36.8636 29.6533 36.7297L28.1226 30.9681H22.1494V30.9681Z" fill="#FF7F18"/>
</g>
<defs>
<radialGradient id="paint0_radial_740_4427" cx="0" cy="0" r="1" gradientUnits="userSpaceOnUse" gradientTransform="translate(21.992 16.6986) scale(31.2107 30.9861)">
<stop stop-color="#423325" stop-opacity="0.98"/>
<stop offset="1" stop-color="#1C0A00"/>
</radialGradient>
<clipPath id="clip0_740_4427">
<rect width="44.8" height="44.8" fill="white" transform="translate(6.59998 5.6001)"/>
</clipPath>
</defs>
</svg>
