<svg width="57" height="56" viewBox="0 0 57 56" fill="none" xmlns="http://www.w3.org/2000/svg">
<g clip-path="url(#clip0_740_4430)">
<path d="M8.86658 7.5188H49.9334V48.4815H8.86658V7.5188Z" fill="url(#paint0_radial_740_4430)"/>
<path d="M8.86658 7.52007H49.9334V48.4827H8.86658V7.52007ZM6.99994 50.3969H51.8V5.60596H6.99994V50.3969ZM37.2027 23.9817C35.728 23.9817 35.224 24.7473 35.224 25.379C35.224 26.0681 35.56 26.5466 37.5387 27.5994C40.4693 29.0542 41.384 30.4515 41.384 32.4996C41.384 35.5622 39.1067 37.2084 36.0267 37.2084C34.4027 37.2084 33.0026 36.8638 32.2 36.3853C32.0693 36.3279 32.0507 36.2322 32.0507 36.079V33.2653C32.0507 33.0739 32.144 33.0164 32.2747 33.1121C33.4507 33.897 34.7947 34.2415 36.0267 34.2415C37.5014 34.2415 38.1174 33.6098 38.1174 32.7484C38.1174 32.0594 37.688 31.4468 35.8026 30.4515C33.1519 29.1499 32.0507 27.8291 32.0507 25.6279C32.0507 23.1586 33.9361 21.1105 37.2027 21.1105C38.808 21.1105 39.928 21.3594 40.544 21.6464C40.6933 21.7421 40.7306 21.8953 40.7306 22.0292V24.6515C40.7306 24.8047 40.6373 24.9004 40.4506 24.8429C39.6293 24.3071 38.416 23.9817 37.2027 23.9817V23.9817ZM21.1493 26.2595C21.5786 26.2978 21.9147 26.2978 22.6613 26.2978C24.8454 26.2978 26.8987 25.513 26.8987 22.4696C26.8987 20.0386 25.424 18.8135 22.9413 18.8135C22.1947 18.8135 21.4853 18.8518 21.1493 18.8709V26.2595ZM17.8267 16.0954C17.8267 15.9614 18.088 15.8657 18.2373 15.8657C19.432 15.8083 21.2053 15.77 23.0533 15.77C28.224 15.77 30.2399 18.6795 30.2399 22.3929C30.2399 27.2548 26.8053 29.3413 22.5866 29.3413C21.8773 29.3413 21.6347 29.303 21.1306 29.303V36.6533C21.1306 36.8064 21.0746 36.883 20.9066 36.883H18.0506C17.9013 36.883 17.8266 36.8255 17.8266 36.6533V16.0954H17.8267Z" fill="#31C5F0"/>
</g>
<defs>
<radialGradient id="paint0_radial_740_4430" cx="0" cy="0" r="1" gradientUnits="userSpaceOnUse" gradientTransform="translate(22.392 16.6986) scale(31.2107 30.9862)">
<stop stop-color="#34364E" stop-opacity="0.98"/>
<stop offset="1" stop-color="#0C0824"/>
</radialGradient>
<clipPath id="clip0_740_4430">
<rect width="44.8" height="44.8" fill="white" transform="translate(6.99994 5.6001)"/>
</clipPath>
</defs>
</svg>
