<svg width="57" height="56" viewBox="0 0 57 56" fill="none" xmlns="http://www.w3.org/2000/svg">
<g clip-path="url(#clip0_740_4433)">
<path d="M15.3969 46.8L12.4666 14.4055H44.6665L41.733 46.7949L28.5468 50.398L15.3969 46.8Z" fill="#E44D26"/>
<path d="M28.5665 47.6438L39.2215 44.7322L41.7286 17.0542H28.5665V47.6438Z" fill="#F16529"/>
<path d="M28.5664 29.0689H23.2323L22.8639 25.0004H28.5664V21.0273H18.4583L18.5549 22.0933L19.5456 33.0418H28.5664V29.0689ZM28.5664 39.3872L28.5487 39.392L24.0593 38.1971L23.7723 35.0285H19.7258L20.2906 41.2668L28.548 43.5261L28.5664 43.521V39.3872Z" fill="#EBEBEB"/>
<path d="M15.4623 5.60205H17.5108V7.59682H19.3847V5.60205H21.4333V11.6428H19.3847V9.62001H17.5108V11.6428H15.4624L15.4623 5.60205ZM24.1273 7.60533H22.324V5.60205H27.9804V7.60533H26.1762V11.6428H24.1274V7.60533H24.1273ZM28.878 5.60205H31.0141L32.3281 7.72463L33.6409 5.60205H35.7778V11.6428H33.7373V8.64859L32.3279 10.7964H32.2927L30.8823 8.64859V11.6428H28.8779V5.60205H28.878ZM36.7971 5.60205H38.8462V9.64612H41.7272V11.6428H36.7971V5.60205Z" fill="black"/>
<path d="M28.5525 29.0689V33.0419H33.5164L33.0484 38.1947L28.5525 39.3906V43.524L36.8165 41.2668L36.8769 40.5954L37.8243 30.1358L37.9227 29.0689H36.8365H28.5525ZM28.5525 21.0273V25.0004H38.2895L38.3703 24.1074L38.554 22.0933L38.6504 21.0273H28.5525Z" fill="white"/>
</g>
<defs>
<clipPath id="clip0_740_4433">
<rect width="32.2" height="44.8" fill="white" transform="translate(12.4666 5.6001)"/>
</clipPath>
</defs>
</svg>
